<?xml version="1.0" encoding="UTF-8" standalone="no"?>
<svg xmlns:dc="http://purl.org/dc/elements/1.1/" xmlns:cc="http://creativecommons.org/ns#" xmlns:rdf="http://www.w3.org/1999/02/22-rdf-syntax-ns#" xmlns:svg="http://www.w3.org/2000/svg" xmlns="http://www.w3.org/2000/svg" width="100mm" height="18mm" viewBox="0 0 100 18" version="1.1" id="svg8">
  <defs id="defs2" />
  <metadata id="metadata5">
    <rdf:RDF>
      <cc:Work rdf:about="">
        <dc:format>image/svg+xml</dc:format>
        <dc:type rdf:resource="http://purl.org/dc/dcmitype/StillImage" />
        <dc:title></dc:title>
      </cc:Work>
    </rdf:RDF>
  </metadata>
  <path
    id="path831"
    d="m 73.798676,0.23039366 c -1.464256,0.0175 -2.939528,0.34077 -4.279753,0.99541004 -2.369082,1.1572199 -4.042409,3.3275299 -4.61737,5.9899099 -0.155767,0.72251 -0.152141,2.8896804 0.0062,3.6101594 0.839798,3.82203 3.814799,6.43905 7.851428,6.90733 l -5.25e-4,5.2e-4 c 0.623147,0.0723 2.275249,0.0228 2.939026,-0.0877 3.367559,-0.56079 5.991535,-2.75366 7.022775,-5.86983 0.301387,-0.91075 0.414584,-1.666419 0.414584,-2.7640594 0,-1.10049 -0.113397,-1.8535 -0.417663,-2.77279 -0.367642,-1.11078 -0.883647,-2.02437 -1.666541,-2.95031 C 79.349698,1.2770737 76.594104,0.19699366 73.798708,0.23045366 Z m 0.243209,4.06835994 c 2.099679,0.0355 3.905706,1.36209 4.540404,3.38337 0.123488,0.39315 0.141515,0.5702 0.138536,1.36022 -0.0032,0.81754 -0.01976,0.95704 -0.165216,1.3930594 -0.562123,1.68491 -1.926925,2.86146 -3.727658,3.21354 -1.746741,0.34152 -3.686228,-0.38713 -4.729227,-1.77686 -0.366203,-0.48794 -0.68001,-1.11153 -0.82968,-1.648589 -0.152569,-0.5480604 -0.153228,-1.8703204 -10e-4,-2.4223404 0.359533,-1.3039 1.279456,-2.41167 2.491607,-2.99905 0.681699,-0.33034 1.11266,-0.44444 1.858442,-0.49309 0.142326,-0.009 0.283838,-0.0126 0.423818,-0.0103 z"
    style={style}
  />
  <path
    id="path827"
    d="m 92.332429,17.770813 c -0.69072,-0.0767 -1.73091,-0.34557 -2.48967,-0.64343 -0.64296,-0.2524 -1.62387,-0.76649 -1.93335,-1.01326 l -0.17597,-0.14032 0.87311,-1.6418 c 0.48021,-0.90299 0.88133,-1.65202 0.89137,-1.6645 0.01,-0.0125 0.21848,0.12723 0.46318,0.31047 0.65624,0.49141 1.21529,0.80997 1.77612,1.01207 1.66637,0.60049 3.14824,0.30431 3.66491,-0.73252 0.19549,-0.3923 0.21282,-0.9284 0.0421,-1.30418 -0.26023,-0.57297 -0.76646,-0.87808 -2.41552,-1.45588 -2.20389,-0.7722094 -2.54883,-0.9294894 -3.18496,-1.4522094 -0.66427,-0.54585 -1.14316,-1.33759 -1.33062,-2.19991 -0.0822,-0.37828 -0.0976,-0.67586 -0.0742,-1.43335 0.0332,-1.07346 0.16922,-1.66596 0.56122,-2.44436 1.32282,-2.62675994 4.70866,-3.49854994 8.57155,-2.20700994 0.69304,0.23172 1.708885,0.66171994 1.708885,0.72336994 0,0.0166 -0.371707,0.75296 -0.826015,1.63637 l -0.82603,1.60619 -0.29016,-0.20845 c -0.80443,-0.57793 -1.87678,-0.92239 -2.69331,-0.86514 -0.6009,0.0421 -0.96655,0.17683 -1.31674,0.48508 -0.66531,0.58562 -0.68398,1.42501 -0.0445,2.00149 0.33182,0.29915 0.86793,0.54078 1.87092,0.84325 1.85872,0.56052 2.96962,1.14619 3.728138,1.96548 1.652803,1.7852394 1.477213,5.3130394 -0.355688,7.1459494 -1.34935,1.34935 -3.61679,1.96303 -6.19476,1.6766 z"
    style={style}
  />
  <path
    id="path825"
    d="m 18.266048,17.188493 c 0.01886,-0.0922 0.652454,-3.81821 1.408015,-8.2799094 0.755559,-4.46169 1.386467,-8.14647994 1.402016,-8.18840994 0.02188,-0.059 0.503337,-0.0762 2.124873,-0.0762 h 2.096601 l 1.641181,4.37013994 c 0.902652,2.40359 1.673818,4.41409 1.713699,4.4678 0.06443,0.0868 0.08245,0.0874 0.161582,0.006 0.06521,-0.067 2.789574,-7.25791 3.287138,-8.67636994 l 0.05884,-0.16773 h 2.100234 c 1.624821,0 2.106476,0.0173 2.127806,0.0762 0.0152,0.0419 0.64591,3.72671994 1.40165,8.18840994 0.75575,4.4616994 1.38967,8.1876594 1.40872,8.2799094 l 0.0346,0.16773 h -2.10913 c -1.521002,0 -2.109134,-0.0191 -2.109134,-0.0686 0,-0.0377 -0.315643,-2.174 -0.701429,-4.7473 -0.385785,-2.5732894 -0.701428,-4.6970294 -0.701428,-4.7194294 0,-0.0224 -0.05233,-0.0407 -0.116297,-0.0407 -0.08687,0 -0.16264,0.11191 -0.299426,0.44221 -0.209229,0.50523 -3.668896,8.9405694 -3.715557,9.0592494 -0.02322,0.0591 -0.230092,0.0738 -0.855228,0.061 l -0.824592,-0.0169 -1.566708,-4.02559 c -0.861689,-2.21407 -1.69738,-4.3618194 -1.857092,-4.7727594 -0.231065,-0.59454 -0.314257,-0.74718 -0.407245,-0.74718 -0.06427,0 -0.116859,0.0153 -0.116859,0.0341 0,0.12394 -1.414935,9.4511594 -1.439851,9.4914794 -0.01715,0.0278 -0.964966,0.0505 -2.106234,0.0505 h -2.07501 z"
    style={style}
  />
  <path
    id="path823"
    d="M 49.869784,13.337393 V 9.3185636 l -0.50712,-0.72344 c -0.27892,-0.39789 -1.63755,-2.33536 -3.0192,-4.30549 -1.38163,-1.97013 -2.51207,-3.59637994 -2.51207,-3.61387994 0,-0.0175 1.1225,-0.0318 2.49445,-0.0318 h 2.49445 l 1.52337,2.24151994 c 1.00889,1.4845 1.56309,2.24757 1.64098,2.25942 0.0934,0.0142 0.43023,-0.44603 1.63935,-2.24033 l 1.52175,-2.25823994 2.52135,-0.001 2.52135,-0.001 -0.27143,0.38121004 c -0.14928,0.20967 -1.52405,2.1611799 -3.05504,4.3366899 l -2.78362,3.95548 v 4.0194594 4.01946 h -2.10429 -2.10428 z"
    style={style}
  />
  <path
    id="rect818"
    d="m 0.9108108,17.183933 c -0.39019298,-0.13965 -0.57240898,-0.30206 -0.75631498,-0.67411 -0.122041,-0.2469 -0.13872,-0.36925 -0.134056,-0.98341 l 0.0053,-0.70143 1.52867298,-5.5809294 c 0.840769,-3.06951 1.602626,-5.78679 1.693013,-6.03839 0.302778,-0.8428 0.630325,-1.40041 1.093363,-1.8613299 0.312091,-0.31066 0.513547,-0.45705004 0.734918,-0.53400004 0.648269,-0.22535 1.400384,-0.0713 2.203296,0.45145004 0.853925,0.5559199 1.4299773,1.2141999 3.3556792,3.8346899 1.776615,2.41761 2.213213,3.06513 2.492447,3.69653 0.635286,1.4364904 0.672408,2.6883594 0.112885,3.8067794 -0.439663,0.87884 -1.531534,1.8236 -2.774233,2.40046 -0.8136922,0.37772 -0.9860392,0.4273 -4.8106342,1.38389 -3.794759,0.94912 -4.15666,1.01013 -4.744361,0.7998 z"
    style={style}
  />
</svg>
